<?xml version="1.0" standalone="no"?>
<!DOCTYPE svg PUBLIC "-//W3C//DTD SVG 20010904//EN"
 "http://www.w3.org/TR/2001/REC-SVG-20010904/DTD/svg10.dtd">
<svg version="1.0" xmlns="http://www.w3.org/2000/svg"
 width="153.000000pt" height="162.000000pt" viewBox="0 0 153.000000 162.000000"
 preserveAspectRatio="xMidYMid meet">

<g transform="translate(0.000000,150.000000) scale(0.100000,-0.100000)"
fill="#000000" stroke="none">
<path fill="#F57C00" d="M295 1452 c-38 -24 -103 -96 -115 -128 -6 -14 -10 -39 -10 -55 l0
-29 490 0 490 0 0 -365 c0 -201 -3 -365 -7 -365 -5 1 -25 25 -46 55 l-38 55
-141 0 -140 0 17 -27 c10 -16 29 -43 42 -60 l24 -33 -200 0 -201 0 0 -120 0
-120 278 0 278 0 35 -37 c20 -21 46 -53 58 -70 l22 -33 145 0 145 0 -64 83
c-84 110 -82 104 -53 129 14 13 35 41 48 63 23 40 23 43 26 455 2 291 0 427
-8 454 -18 62 -57 111 -109 140 l-49 26 -443 0 c-413 0 -446 -1 -474 -18z"/>
<path fill="#F57C00" d="M170 809 c0 -407 -1 -398 64 -467 37 -40 69 -58 125 -71 l41 -9 0
189 0 189 220 0 220 0 0 120 0 120 -220 0 -220 0 0 30 0 30 305 0 306 0 -3
118 -3 117 -417 2 -418 3 0 -371z"/>
</g>
</svg>
